# AST/ASF file generated using VICON BodyLanguage
# -----------------------------------------------
:version 1.10
:name VICON
:units
  mass 1.0
  length 0.45
  angle deg
:documentation
   .ast/.asf automatically generated from VICON data using
   VICON BodyBuilder and BodyLanguage model FoxedUp or BRILLIANT.MOD
:root
   order TX TY TZ RX RY RZ
   axis XYZ
   position 0 0 0  
   orientation 0 0 0 
:bonedata
  begin
     id 1 
     name lhipjoint
     direction 0.635376 -0.686425 0.353719 
     length 2.47244 
     axis 0 0 0  XYZ
  end
  begin
     id 2 
     name lfemur
     direction 0.34202 -0.939693 0  
     length 7.25268  
     axis 0 0 20  XYZ
    dof rx ry rz
    limits (-160.0 20.0)
           (-70.0 70.0)
           (-60.0 70.0)
  end
  begin
     id 3 
     name ltibia
     direction 0.34202 -0.939693 0   
     length 7.6767   
     axis 0 0 20   XYZ
    dof rx
    limits (-10.0 170.0)
  end
  begin
     id 4 
     name lfoot
     direction 0.0803374 -0.220725 0.972022   
     length 2.22945   
     axis -90 7.62852e-016 20   XYZ
    dof rx rz
    limits (-45.0 90.0)
           (-70.0 20.0)
  end
  begin
     id 5 
     name ltoes
     direction 1.53579e-011 -4.21994e-011 1   
     length 1.11848   
     axis -90 7.62852e-016 20   XYZ
    dof rx
    limits (-90.0 20.0)
  end
  begin
     id 6 
     name rhipjoint
     direction -0.664428 -0.664335 0.342336   
     length 2.55466  
     axis 0 0 0  XYZ 
  end
  begin
     id 7 
     name rfemur
     direction -0.34202 -0.939693 0   
     length 6.83172   
     axis 0 0 -20   XYZ
    dof rx ry rz
    limits (-160.0 20.0)
           (-70.0 70.0)
           (-70.0 60.0)
  end
  begin
     id 8 
     name rtibia
     direction -0.34202 -0.939693 0   
     length 7.62692   
     axis 0 0 -20   XYZ
    dof rx
    limits (-10.0 170.0)
 end
 begin
     id 9 
     name rfoot
     direction -0.0949276 -0.260811 0.960711   
     length 2.19684  
     axis -90 -7.62852e-016 -20   XYZ
    dof rx rz
    limits (-45.0 90.0)
           (-20.0 70.0)
  end
  begin
     id 10 
     name rtoes
     direction -1.53543e-011 -4.2183e-011 1   
     length 1.09848   
     axis -90 -7.62852e-016 -20   XYZ
    dof rx
    limits (-90.0 20.0)
  end
  begin
     id 11 
     name lowerback
     direction 0.0118782 0.999815 -0.0151555   
     length 2.15772   
     axis 0 0 0   XYZ
    dof rx ry rz
    limits (-20.0 45.0)
           (-30.0 30.0)
           (-30.0 30.0)
  end
  begin
     id 12 
     name upperback
     direction 0.00130825 0.999065 0.0432113   
     length 2.14863   
     axis 0 0 0   XYZ
    dof rx ry rz
    limits (-20.0 45.0)
           (-30.0 30.0)
           (-30.0 30.0)
  end
  begin
     id 13 
     name thorax
     direction -0.00347005 0.998773 0.0494011   
     length 2.14936   
     axis 0 0 0   XYZ
    dof rx ry rz
    limits (-20.0 45.0)
           (-30.0 30.0)
           (-30.0 30.0)
  end
  begin
     id 14 
     name lowerneck
     direction -0.0262159 0.99424 0.103921   
     length 1.69373   
     axis 0 0 0   XYZ
    dof rx ry rz
    limits (-20.0 45.0)
           (-30.0 30.0)
           (-30.0 30.0)
  end
  begin
     id 15 
     name upperneck
     direction 0.0353511 0.977394 -0.20845   
     length 1.70857   
     axis 0 0 0   XYZ
    dof rx ry rz
    limits (-20.0 45.0)
           (-30.0 30.0)
           (-30.0 30.0)
  end
  begin
     id 16
     name head
     direction 0.0139214 0.996594 -0.0812836  
     length 1.72777  
     axis 0 0 0   XYZ
    dof rx ry rz
    limits (-20.0 45.0)
           (-30.0 30.0)
           (-30.0 30.0)
  end
  begin
     id 17 
     name lclavicle
     direction 0.841247 0.537205 -0.0609508  
     length 3.55371  
     axis 0 0 0   XYZ
    dof ry rz
    limits (-20.0 10.0)
           (0.0 20.0)
  end
  begin
     id 18 
     name lhumerus
     direction 1 -4.48964e-011 1.60116e-018   
     length 4.91377   
     axis -180 -30 -90   XYZ
    dof rx ry rz
    limits (-60.0 90.0)
           (-90.0 90.0)
           (-90.0 90.0)
  end
  begin
     id 19
     name lradius
     direction 1 -4.48989e-011 -8.93847e-027   
     length 3.00291   
     axis -180 -30 -90   XYZ
    dof rx
    limits (-10.0 170.0)
  end
  begin
     id 20
     name lwrist
     direction 1 -4.48932e-011 -7.31504e-027   
     length 1.50145   
     axis 5.74121e-015 90 90   XYZ
    dof ry
    limits (-180.0 0.0)
 end
  begin
     id 21 
     name lhand
     direction 1 -4.48971e-011 -1.46301e-026   
     length 0.450922   
     axis 9.33524e-015 90 90   XYZ
    dof rx rz
    limits (-90.0 90.0)
           (-45.0 45.0)
  end
  begin
     id 22 
     name lfingers
     direction 1 -4.49039e-011 -2.92602e-026   
     length 0.363545   
     axis 1.86705e-014 90 90   XYZ
    dof rx
    limits (0.0 90.0)
  end
  begin
     id 23
     name lthumb
     direction 0.707107 -6.34941e-011 0.707107   
     length 0.52198   
     axis -90 45 2.85299e-015   XYZ
    dof rx rz
    limits (-45.0 45.0)
           (-45.0 45.0)
  end
  begin
     id 24 
     name rclavicle
     direction -0.825079 0.56158 -0.0622297   
     length 3.39909  
     axis 0 0 0   XYZ 
    dof ry rz
    limits (-10.0 20.0)
           (-20.0 0.0)
  end
  begin
     id 25 
     name rhumerus
     direction -1 -4.48965e-011 1.61691e-027  
     length 4.86725   
     axis -180 30 90   XYZ
    dof rx ry rz
    limits (-90.0 60.0)
           (-90.0 90.0)
           (-90.0 90.0)
  end
  begin
     id 26 
     name rradius
     direction -1 -4.48964e-011 -2.25776e-027   
     length 3.17144   
     axis -180 30 90   XYZ
    dof rx
    limits (-10.0 170.0)
  end
  begin
     id 27 
     name rwrist
     direction -1 -4.48961e-011 -7.31504e-027   
     length 1.58572   
     axis 5.74121e-015 -90 -90   XYZ
    dof ry
    limits (-180.0 0.0)
  end
  begin
     id 28
     name rhand
     direction -1 -4.49013e-011 -1.46301e-026   
     length 0.419368   
     axis 9.33524e-015 -90 -90   XYZ
    dof rx rz
    limits (-90.0 90.0)
           (-45.0 45.0)
  end
  begin
     id 29
     name rfingers
     direction -1 -4.489e-011 -2.92602e-026   
     length 0.338105   
     axis 1.86705e-014 -90 -90   XYZ
    dof rx
    limits (0.0 90.0)
  end
  begin
     id 30
     name rthumb
     direction -0.707107 -6.35022e-011 0.707107   
     length 0.485453   
     axis -90 -45 -2.85299e-015   XYZ
    dof rx rz
    limits (-45.0 45.0)
           (-45.0 45.0)
  end
:hierarchy
  begin
    root lhipjoint rhipjoint lowerback
    lhipjoint lfemur
    lfemur ltibia
    ltibia lfoot
    lfoot ltoes
    rhipjoint rfemur
    rfemur rtibia
    rtibia rfoot
    rfoot rtoes
    lowerback upperback
    upperback thorax
    thorax lowerneck lclavicle rclavicle
    lowerneck upperneck
    upperneck head
    lclavicle lhumerus
    lhumerus lradius
    lradius lwrist
    lwrist lhand lthumb
    lhand lfingers
    rclavicle rhumerus
    rhumerus rradius
    rradius rwrist
    rwrist rhand rthumb
    rhand rfingers
  end

#!OML:ASF H:\Swim 2\Project 1\Capture day 1\Session 1\male.ASF
:FULLY-SPECIFIED
:DEGREES
454
root 0.509625 14.5901 8.79907 109.153 -2.33239 -0.85549
lowerback -24.9037 -7.61823 10.7293
upperback -6.92506 -13.1965 -4.21643
thorax 2.32858 -7.19144 -13.9132
lowerneck -21.5013 6.86477 -3.71878
upperneck 29.8648 12.414 -4.30534
head 13.8521 4.12739 1.09345
rclavicle -6.04305e-014 -1.03368e-014
rhumerus -25.3324 7.48611 -22.0109
rradius 54.2686
rwrist -36.6149
rhand -21.4288 6.23806
rfingers 7.12502
rthumb 4.96028 -23.6839
lclavicle -6.04305e-014 -1.03368e-014
lhumerus 72.7152 32.3975 27.0182
lradius 25.3309
lwrist 14.7958
lhand -38.9158 -4.08114
lfingers 7.12502
lthumb -11.9224 25.5594
rfemur -38.1005 -1.31128 24.108
rtibia 47.4622
rfoot 31.45 3.68299
rtoes 15.7326
lfemur -44.5096 -1.82382 -21.4424
ltibia 34.7855
lfoot -0.673156 6.83381
ltoes -2.65177
455
root 0.518475 14.5842 8.7722 108.99 -2.45908 -0.941425
lowerback -24.931 -7.62329 10.7926
upperback -6.95847 -13.2271 -4.17446
thorax 2.29151 -7.21419 -13.9051
lowerneck -21.3803 6.89918 -3.92355
upperneck 29.9448 12.4764 -4.14627
head 13.8314 4.15027 1.19316
rclavicle 3.18055e-014 2.50469e-014
rhumerus -23.4492 5.11034 -20.3406
rradius 55.1998
rwrist -37.5422
rhand -21.0671 6.26515
rfingers 7.12502
rthumb 5.30951 -23.6483
lclavicle 3.18055e-014 2.50469e-014
lhumerus 71.7698 31.9989 26.2802
lradius 25.3932
lwrist 15.0507
lhand -38.6382 -3.91136
lfingers 7.12502
lthumb -11.6548 25.7445
rfemur -38.56 -1.10902 23.929
rtibia 46.6749
rfoot 30.7623 3.30515
rtoes 15.7314
lfemur -44.2203 -1.26174 -21.9095
ltibia 35.9287
lfoot -0.756195 6.31599
ltoes -3.22464
456
root 0.528223 14.578 8.74683 108.832 -2.60322 -0.99177
lowerback -24.9466 -7.62659 10.7996
upperback -7.00226 -13.2381 -4.12531
thorax 2.25828 -7.22538 -13.8516
lowerneck -21.2343 6.90374 -4.13106
upperneck 29.9746 12.4971 -4.00634
head 13.7853 4.15735 1.27661
rclavicle 3.18055e-015 -2.06736e-014
rhumerus -21.5592 2.83116 -18.7662
rradius 56.0833
rwrist -38.2302
rhand -20.7518 6.38565
rfingers 7.12502
rthumb 5.61395 -23.52
lclavicle 3.18055e-015 -2.06736e-014
lhumerus 70.8737 31.5528 25.6278
lradius 25.4517
lwrist 15.3261
lhand -38.3713 -3.80009
lfingers 7.12502
lthumb -11.3974 25.8702
rfemur -39.0592 -0.926813 23.7355
rtibia 45.7998
rfoot 29.9877 2.73671
rtoes 15.8552
lfemur -43.8806 -0.762569 -22.3516
ltibia 37.0332
lfoot -0.906163 5.98525
ltoes -3.88819
457
root 0.538843 14.5718 8.7232 108.671 -2.76793 -1.00882
lowerback -24.9365 -7.62916 10.7437
upperback -7.0531 -13.2276 -4.07005
thorax 2.22778 -7.22349 -13.7478
lowerneck -21.0663 6.87877 -4.33859
upperneck 29.9583 12.4766 -3.88755
head 13.7169 4.14861 1.34301
rclavicle -5.08889e-014 -3.02153e-014
rhumerus -19.6549 0.646235 -17.2623
rradius 56.8917
rwrist -38.6511
rhand -20.4459 6.55863
rfingers 7.12502
rthumb 5.90937 -23.339
lclavicle -5.08889e-014 -3.02153e-014
lhumerus 70.0386 31.0685 25.073
lradius 25.5015
lwrist 15.5917
lhand -38.1222 -3.75171
lfingers 7.12502
lthumb -11.1571 25.9317
rfemur -39.5785 -0.726838 23.509
rtibia 44.8326
rfoot 29.1662 1.9515
rtoes 16.1254
lfemur -43.4844 -0.310215 -22.7834
ltibia 38.087
lfoot -1.08547 5.82214
ltoes -4.55005
458
root 0.550247 14.5659 8.70145 108.501 -2.95486 -0.997271
lowerback -24.8915 -7.63097 10.6234
upperback -7.10766 -13.1942 -4.0097
thorax 2.19955 -7.20746 -13.5924
lowerneck -20.8842 6.82515 -4.54844
upperneck 29.9033 12.4169 -3.78477
head 13.6308 4.12449 1.39559
rclavicle 1.27222e-014 -6.87795e-014
rhumerus -17.7305 -1.44405 -15.8075
rradius 57.607
rwrist -38.834
rhand -20.115 6.74404
rfingers 7.12502
rthumb 6.22878 -23.1444
lclavicle 1.27222e-014 -6.87795e-014
lhumerus 69.2578 30.5564 24.6024
lradius 25.5412
lwrist 15.8172
lhand -37.8973 -3.76154
lfingers 7.12502
lthumb -10.9402 25.9334
rfemur -40.0998 -0.484511 23.2342
rtibia 43.765
rfoot 28.3135 0.955764
rtoes 16.4995
lfemur -43.0303 0.11458 -23.2181
ltibia 39.081
lfoot -1.25199 5.7905
ltoes -5.09938
459
root 0.562167 14.5604 8.68207 108.325 -3.16217 -0.967437
lowerback -24.8109 -7.62921 10.4429
upperback -7.164 -13.1355 -3.94381
thorax 2.17503 -7.17573 -13.3871
lowerneck -20.6997 6.74483 -4.76293
upperneck 29.8194 12.3215 -3.69198
head 13.5334 4.08601 1.43855
rclavicle -9.54166e-015 -1.70955e-014
rhumerus -15.7814 -3.44298 -14.3856
rradius 58.2205
rwrist -38.8452
rhand -19.7365 6.91071
rfingers 7.12502
rthumb 6.59419 -22.9666
lclavicle -9.54166e-015 -1.70955e-014
lhumerus 68.5253 30.0291 24.1981
lradius 25.56
lwrist 15.9665
lhand -37.6999 -3.82202
lfingers 7.12502
lthumb -10.7498 25.8829
rfemur -40.6096 -0.198218 22.9068
rtibia 42.583
rfoot 27.4248 -0.199553
rtoes 16.8885
lfemur -42.5246 0.534317 -23.6628
ltibia 40.0065
lfoot -1.36868 5.84372
ltoes -5.45436
